<?xml version="1.0" encoding="utf-8"?>
<svg version="1.1" xmlns:xlink="http://www.w3.org/1999/xlink" width="75px" height="75px" xmlns="http://www.w3.org/2000/svg">
  <g>
    <path d="M 1 5  A 4 4 0 0 1 5 1 L 70 1  A 4 4 0 0 1 74 5 L 74 70  A 4 4 0 0 1 70 74 L 5 74  A 4 4 0 0 1 1 70 L 1 5  Z " fill-rule="nonzero" fill="#f9f9f9" stroke="none" />
    <path d="M 0.5 5  A 4.5 4.5 0 0 1 5 0.5 L 70 0.5  A 4.5 4.5 0 0 1 74.5 5 L 74.5 70  A 4.5 4.5 0 0 1 70 74.5 L 5 74.5  A 4.5 4.5 0 0 1 0.5 70 L 0.5 5  Z " stroke-width="1" stroke-dasharray="3,1" stroke="#d7dde4" fill="none" stroke-dashoffset="0.5" />
  </g>
</svg>