<?xml version="1.0" encoding="utf-8"?>
<svg version="1.1" xmlns:xlink="http://www.w3.org/1999/xlink" width="158px" height="6px" viewBox="156 182  158 6" xmlns="http://www.w3.org/2000/svg">
  <defs>
    <mask fill="white" id="clip628">
      <path d="M 206.5 174  L 263.5 174  L 263.5 196  L 206.5 196  Z M 157.146064363337 160.988973121403  L 320 160.988973121403  L 320 213  L 157.146064363337 213  Z " fill-rule="evenodd" />
    </mask>
  </defs>
  <g transform="matrix(-0.970142500145333 0.242535625036333 -0.24253562503633 -0.970142500145331 507.852578165874 307.480490643348 )">
    <path d="M 159 166  L 300.328432498401 201.3321081246  " stroke-width="1" stroke="#555555" fill="none" mask="url(#clip628)" />
    <path d="M 303.651170561399 208.656684000698  L 311 204  L 306.707119436857 196.432888498866  L 303.651170561399 208.656684000698  Z M 305.203398561632 206.570877625385  L 307.095176436915 199.003766124252  L 309.544786249782 203.636196562445  L 305.203398561632 206.570877625385  Z M 298.800458060672 207.444005875516  L 306.149287499273 202.787321874818  L 301.85640693613 195.220210373685  L 298.800458060672 207.444005875516  Z M 300.352686060905 205.358199500203  L 302.244463936188 197.79108799907  L 304.694073749055 202.423518437264  L 300.352686060905 205.358199500203  Z " fill-rule="nonzero" fill="#555555" stroke="none" mask="url(#clip628)" />
  </g>
</svg>