<?xml version="1.0" encoding="utf-8"?>
<svg version="1.1" xmlns:xlink="http://www.w3.org/1999/xlink" width="82px" height="6px" viewBox="320 320  82 6" xmlns="http://www.w3.org/2000/svg">
  <defs>
    <mask fill="white" id="clip630">
      <path d="M 332.5 313  L 389.5 313  L 389.5 335  L 332.5 335  Z M 332.5 275  L 389.5 275  L 389.5 365  L 332.5 365  Z " fill-rule="evenodd" />
    </mask>
  </defs>
  <g transform="matrix(0 -1 1 0 38 684 )">
    <path d="M 361.5 313  L 361.5 295  M 361.5 335  L 361.5 363  " stroke-width="1" stroke="#555555" fill="none" />
    <path d="M 367.8 290  L 361.5 284  L 355.2 290  L 367.8 290  Z M 365.4 289  L 357.6 289  L 361.5 285.5  L 365.4 289  Z M 367.8 295  L 361.5 289  L 355.2 295  L 367.8 295  Z M 365.4 294  L 357.6 294  L 361.5 290.5  L 365.4 294  Z " fill-rule="nonzero" fill="#555555" stroke="none" mask="url(#clip630)" />
  </g>
</svg>