<?xml version="1.0" encoding="utf-8"?>
<svg version="1.1" xmlns:xlink="http://www.w3.org/1999/xlink" width="80px" height="30px" xmlns="http://www.w3.org/2000/svg">
  <g transform="matrix(1 0 0 1 -176 -423 )">
    <path d="M 176.5 426  A 2.5 2.5 0 0 1 179 423.5 L 253 423.5  A 2.5 2.5 0 0 1 255.5 426 L 255.5 450  A 2.5 2.5 0 0 1 253 452.5 L 179 452.5  A 2.5 2.5 0 0 1 176.5 450 L 176.5 426  Z " fill-rule="nonzero" fill="#f0f7ff" stroke="none" />
    <path d="M 176.5 426  A 2.5 2.5 0 0 1 179 423.5 L 253 423.5  A 2.5 2.5 0 0 1 255.5 426 L 255.5 450  A 2.5 2.5 0 0 1 253 452.5 L 179 452.5  A 2.5 2.5 0 0 1 176.5 450 L 176.5 426  Z " stroke-width="1" stroke="#409eff" fill="none" />
  </g>
</svg>