<?xml version="1.0" encoding="utf-8"?>
<svg version="1.1" xmlns:xlink="http://www.w3.org/1999/xlink" width="30px" height="40px" xmlns="http://www.w3.org/2000/svg">
  <defs>
    <filter x="1190px" y="194px" width="30px" height="40px" filterUnits="userSpaceOnUse" id="filter131">
      <feOffset dx="1" dy="1" in="SourceAlpha" result="shadowOffsetInner" />
      <feGaussianBlur stdDeviation="2.5" in="shadowOffsetInner" result="shadowGaussian" />
      <feComposite in2="shadowGaussian" operator="atop" in="SourceAlpha" result="shadowComposite" />
      <feColorMatrix type="matrix" values="0 0 0 0 0  0 0 0 0 0  0 0 0 0 0  0 0 0 0.698039215686274 0  " in="shadowComposite" />
    </filter>
    <g id="widget132">
      <path d="M 1204 226.95558796737  C 1200.2 219.857284902997  1194.5 215.598303064373  1194.5 208.5  C 1194.5 204.785714285714  1196.4 198.5  1204 198.5  C 1211.6 198.5  1213.5 204.785714285714  1213.5 208.5  C 1213.5 215.598303064373  1207.8 219.857284902997  1204 226.95558796737  Z " fill-rule="nonzero" fill="#009dd9" stroke="none" />
      <path d="M 1204 228  C 1200 220.5  1194 216  1194 208.5  C 1194 204.6  1196 198  1204 198  C 1212 198  1214 204.6  1214 208.5  C 1214 216  1208 220.5  1204 228  Z M 1204 225.91117593474  C 1207.6 219.214569805994  1213 215.196606128746  1213 208.5  C 1213 204.971428571429  1211.2 199  1204 199  C 1196.8 199  1195 204.971428571429  1195 208.5  C 1195 215.196606128746  1200.4 219.214569805994  1204 225.91117593474  Z " fill-rule="nonzero" fill="#ffffff" stroke="none" />
    </g>
  </defs>
  <g transform="matrix(1 0 0 1 -1190 -194 )">
    <use xlink:href="#widget132" filter="url(#filter131)" />
    <use xlink:href="#widget132" />
  </g>
</svg>