<?xml version="1.0" encoding="utf-8"?>
<svg version="1.1" xmlns:xlink="http://www.w3.org/1999/xlink" width="121px" height="31px" xmlns="http://www.w3.org/2000/svg">
  <g transform="matrix(1 0 0 1 -288 -100 )">
    <path d="M 1.5 30  L 120 30  L 102.221411052752 3.71491151282115  C 100.443552158028 1.08640266410326  98.5771288422019 0.5  93.2214110527524 0.5  L 3.5 0.5  C 2.18 0.5  0.499999999999998 2.18  1.5 3.5  L 1.5 30  Z " fill-rule="nonzero" fill="#ffffff" stroke="none" transform="matrix(1 0 0 1 288 100 )" />
    <path d="M 120 30  L 102.221411052752 3.71491151282115  C 100.443552158028 1.08640266410326  98.5771288422019 0.5  93.2214110527524 0.5  L 3.5 0.5  C 2.18 0.5  0.499999999999998 2.18  1.5 3.5  L 1.5 30  " stroke-width="1" stroke="#eeeeee" fill="none" transform="matrix(1 0 0 1 288 100 )" />
  </g>
</svg>