<?xml version="1.0" encoding="utf-8"?>
<svg version="1.1" xmlns:xlink="http://www.w3.org/1999/xlink" width="374px" height="101px" xmlns="http://www.w3.org/2000/svg">
  <defs>
    <mask fill="white" id="clip105">
      <path d="M 0 101  L 0 0  L 374 0  L 374 101  L 277.383333333333 101  L 212.405405405405 101  L 0 101  Z " fill-rule="evenodd" />
    </mask>
  </defs>
  <g transform="matrix(1 0 0 1 -170 -479 )">
    <path d="M 0 101  L 0 0  L 374 0  L 374 101  L 277.383333333333 101  L 212.405405405405 101  L 0 101  Z " fill-rule="nonzero" fill="#ffffff" stroke="none" transform="matrix(1 0 0 1 170 479 )" />
    <path d="M 0 101  L 0 0  L 374 0  L 374 101  L 277.383333333333 101  L 212.405405405405 101  L 0 101  Z " stroke-width="2" stroke-dasharray="3,1" stroke="#797979" fill="none" transform="matrix(1 0 0 1 170 479 )" mask="url(#clip105)" />
  </g>
</svg>