<?xml version="1.0" encoding="utf-8"?>
<svg version="1.1" xmlns:xlink="http://www.w3.org/1999/xlink" width="41px" height="41px" xmlns="http://www.w3.org/2000/svg">
  <defs>
    <mask fill="white" id="clip73">
      <path d="M 12 8  C 12 3.52000000000001  15.52 0  20 0  C 24.48 0  28 3.52000000000001  28 8  C 28 10.6556682289952  26.7631009061314 12.9740003414807  24.8225484369104 14.4217506189405  C 23.4894709522123 15.4162938374095  21.8243317710048 16  20 16  C 15.52 16  12 12.48  12 8  Z " fill-rule="evenodd" />
    </mask>
  </defs>
  <g transform="matrix(1 0 0 1 -119 -146 )">
    <path d="M 12 8  C 12 3.52000000000001  15.52 0  20 0  C 24.48 0  28 3.52000000000001  28 8  C 28 10.6556682289952  26.7631009061314 12.9740003414807  24.8225484369104 14.4217506189405  C 23.4894709522123 15.4162938374095  21.8243317710048 16  20 16  C 15.52 16  12 12.48  12 8  Z " fill-rule="nonzero" fill="#ffffff" stroke="none" transform="matrix(1 0 0 1 119 146 )" />
    <path d="M 12 8  C 12 3.52000000000001  15.52 0  20 0  C 24.48 0  28 3.52000000000001  28 8  C 28 10.6556682289952  26.7631009061314 12.9740003414807  24.8225484369104 14.4217506189405  C 23.4894709522123 15.4162938374095  21.8243317710048 16  20 16  C 15.52 16  12 12.48  12 8  Z " stroke-width="2" stroke="#797979" fill="none" transform="matrix(1 0 0 1 119 146 )" mask="url(#clip73)" />
    <path d="M 0 24.5  L 40 24.5  M 20.5 16  L 20.5 32  M 4 40  L 20 32  M 20 32  L 36 40  " stroke-width="1" stroke="#797979" fill="none" transform="matrix(1 0 0 1 119 146 )" />
  </g>
</svg>