<?xml version="1.0" encoding="utf-8"?>
<svg version="1.1" xmlns:xlink="http://www.w3.org/1999/xlink" width="30px" height="30px" xmlns="http://www.w3.org/2000/svg">
  <g transform="matrix(1 0 0 1 -150 -30 )">
    <path d="M 165 31  C 172.84 31  179 37.16  179 45  C 179 52.84  172.84 59  165 59  C 157.16 59  151 52.84  151 45  C 151 37.16  157.16 31  165 31  Z " fill-rule="nonzero" fill="#409eff" stroke="none" />
    <path d="M 165 31  C 172.84 31  179 37.16  179 45  C 179 52.84  172.84 59  165 59  C 157.16 59  151 52.84  151 45  C 151 37.16  157.16 31  165 31  Z " stroke-width="2" stroke="#409eff" fill="none" />
  </g>
</svg>