<?xml version="1.0" encoding="utf-8"?>
<svg version="1.1" xmlns:xlink="http://www.w3.org/1999/xlink" width="30px" height="30px" xmlns="http://www.w3.org/2000/svg">
  <g transform="matrix(1 0 0 1 -1200 -30 )">
    <path d="M 1215 31  C 1222.84 31  1229 37.16  1229 45  C 1229 52.84  1222.84 59  1215 59  C 1207.16 59  1201 52.84  1201 45  C 1201 37.16  1207.16 31  1215 31  Z " fill-rule="nonzero" fill="#ffffff" stroke="none" />
    <path d="M 1215 31  C 1222.84 31  1229 37.16  1229 45  C 1229 52.84  1222.84 59  1215 59  C 1207.16 59  1201 52.84  1201 45  C 1201 37.16  1207.16 31  1215 31  Z " stroke-width="2" stroke="#e4e4e4" fill="none" />
  </g>
</svg>