<?xml version="1.0" encoding="utf-8"?>
<svg version="1.1" xmlns:xlink="http://www.w3.org/1999/xlink" width="30px" height="30px" xmlns="http://www.w3.org/2000/svg">
  <defs>
    <filter x="133px" y="657px" width="30px" height="30px" filterUnits="userSpaceOnUse" id="filter172">
      <feOffset dx="1" dy="1" in="SourceAlpha" result="shadowOffsetInner" />
      <feGaussianBlur stdDeviation="2.5" in="shadowOffsetInner" result="shadowGaussian" />
      <feComposite in2="shadowGaussian" operator="atop" in="SourceAlpha" result="shadowComposite" />
      <feColorMatrix type="matrix" values="0 0 0 0 0  0 0 0 0 0  0 0 0 0 0  0 0 0 0.698039215686274 0  " in="shadowComposite" />
    </filter>
    <g id="widget173">
      <path d="M 147 661  C 152.6 661  157 665.4  157 671  C 157 676.6  152.6 681  147 681  C 141.4 681  137 676.6  137 671  C 137 665.4  141.4 661  147 661  Z " fill-rule="nonzero" fill="#009dd9" stroke="none" />
      <path d="M 147 661.5  C 152.32 661.5  156.5 665.68  156.5 671  C 156.5 676.32  152.32 680.5  147 680.5  C 141.68 680.5  137.5 676.32  137.5 671  C 137.5 665.68  141.68 661.5  147 661.5  Z " stroke-width="1" stroke="#ffffff" fill="none" />
    </g>
  </defs>
  <g transform="matrix(1 0 0 1 -133 -657 )">
    <use xlink:href="#widget173" filter="url(#filter172)" />
    <use xlink:href="#widget173" />
  </g>
</svg>