<?xml version="1.0" encoding="utf-8"?>
<svg version="1.1" xmlns:xlink="http://www.w3.org/1999/xlink" width="80px" height="35px" xmlns="http://www.w3.org/2000/svg">
  <g transform="matrix(1 0 0 1 -550 -20 )">
    <path d="M 550.5 25  A 4.5 4.5 0 0 1 555 20.5 L 625 20.5  A 4.5 4.5 0 0 1 629.5 25 L 629.5 50  A 4.5 4.5 0 0 1 625 54.5 L 555 54.5  A 4.5 4.5 0 0 1 550.5 50 L 550.5 25  Z " fill-rule="nonzero" fill="#f0f7ff" stroke="none" />
    <path d="M 550.5 25  A 4.5 4.5 0 0 1 555 20.5 L 625 20.5  A 4.5 4.5 0 0 1 629.5 25 L 629.5 50  A 4.5 4.5 0 0 1 625 54.5 L 555 54.5  A 4.5 4.5 0 0 1 550.5 50 L 550.5 25  Z " stroke-width="1" stroke="#409eff" fill="none" />
  </g>
</svg>