<?xml version="1.0" encoding="utf-8"?>
<svg version="1.1" xmlns:xlink="http://www.w3.org/1999/xlink" width="200px" height="185px" xmlns="http://www.w3.org/2000/svg">
  <g transform="matrix(1 0 0 1 -165 -132 )">
    <path d="M 165 132  L 365 132  L 365 317  L 165 317  L 165 132  " fill-rule="nonzero" fill="#cccccc" stroke="none" />
    <path d="M 178 145  L 352 145  L 352 304  L 178 304  L 178 145  " fill-rule="nonzero" fill="#ffffff" stroke="none" />
    <path d="M 282.875 187.5  C 275.105 187.5  269 181.395  269 173.625  C 269 165.855  275.105 159.75  282.875 159.75  C 290.645 159.75  296.75 165.855  296.75 173.625  C 296.75 181.395  290.645 187.5  282.875 187.5  " fill-rule="nonzero" fill="#cccccc" stroke="none" />
    <path d="M 183 300  L 183 217.5  L 224.25 180  L 282 216.75  L 315 202.5  L 348 216.75  L 348 300  L 183 300  " fill-rule="nonzero" fill="#169bd5" stroke="none" />
  </g>
</svg>