<?xml version="1.0" encoding="utf-8"?>
<svg version="1.1" xmlns:xlink="http://www.w3.org/1999/xlink" width="18px" height="23px" preserveAspectRatio="xMidYMin meet" viewBox="1383 321  16 23" xmlns="http://www.w3.org/2000/svg">
  <path d="M 1003 132.5  L 1391.5 132.5  L 1391.5 337  " stroke-width="1" stroke-dasharray="3,1" stroke="#000000" fill="none" />
  <path d="M 1003.65355339059 137.853553390593  L 1008.65355339059 132.853553390593  L 1009.00710678119 132.5  L 1008.65355339059 132.146446609407  L 1003.65355339059 127.146446609407  L 1002.94644660941 127.853553390593  L 1007.59289321881 132.5  L 1002.94644660941 137.146446609407  L 1003.65355339059 137.853553390593  Z M 1009 138  L 1009 127  L 1008 127  L 1008 138  L 1009 138  Z M 1396.85355339059 336.346446609407  L 1391.85355339059 331.346446609407  L 1391.5 330.992893218813  L 1391.14644660941 331.346446609407  L 1386.14644660941 336.346446609407  L 1386.85355339059 337.053553390593  L 1391.5 332.407106781187  L 1396.14644660941 337.053553390593  L 1396.85355339059 336.346446609407  Z M 1397 331  L 1386 331  L 1386 332  L 1397 332  L 1397 331  Z " fill-rule="nonzero" fill="#000000" stroke="none" />
</svg>