<?xml version="1.0" encoding="utf-8"?>
<svg version="1.1" xmlns:xlink="http://www.w3.org/1999/xlink" width="182px" height="6px" viewBox="144 212  182 6" xmlns="http://www.w3.org/2000/svg">
  <defs>
    <mask fill="white" id="clip629">
      <path d="M 206.5 204  L 263.5 204  L 263.5 226  L 206.5 226  Z M 155.808845424853 161.487083230116  L 320 161.487083230116  L 320 273  L 155.808845424853 273  Z " fill-rule="evenodd" />
    </mask>
  </defs>
  <g transform="matrix(-0.84045911851853 0.54187495799221 -0.541874957992207 -0.840459118518529 549.011008820179 268.358095353314 )">
    <path d="M 159 166  L 301.754949696296 258.039375462086  " stroke-width="1" stroke="#555555" fill="none" mask="url(#clip629)" />
    <path d="M 302.543433053538 266.043642698713  L 311 264  L 309.37105752424 255.45385780538  L 302.543433053538 266.043642698713  Z M 304.684392071238 264.568415772261  L 308.911016743577 258.012834647817  L 309.739311322222 263.187187563012  L 304.684392071238 264.568415772261  Z M 298.341137460945 263.334267908752  L 306.797704407407 261.290625210039  L 305.168761931647 252.744483015419  L 298.341137460945 263.334267908752  Z M 300.482096478645 261.8590409823  L 304.708721150984 255.303459857856  L 305.53701572963 260.477812773051  L 300.482096478645 261.8590409823  Z " fill-rule="nonzero" fill="#555555" stroke="none" mask="url(#clip629)" />
  </g>
</svg>