<?xml version="1.0" encoding="utf-8"?>
<svg version="1.1" xmlns:xlink="http://www.w3.org/1999/xlink" width="118px" height="20px" viewBox="386 330  118 20" xmlns="http://www.w3.org/2000/svg">
  <defs>
    <mask fill="white" id="clip632">
      <path d="M 421.5 273  L 514.5 273  L 514.5 307  L 421.5 307  Z M 401 189.593736426184  L 514.5 189.593736426184  L 514.5 395.711997675951  L 401 395.711997675951  Z " fill-rule="evenodd" />
    </mask>
  </defs>
  <g transform="matrix(-0.529919264233203 -0.848048096156426 0.848048096156427 -0.529919264233205 392.47771989059 897.553952628899 )">
    <path d="M 411 204  C 484.135659563441 256.92712205249  486.892046761362 314.175778373038  419.269161593763 375.745968961645  " stroke-width="1" stroke="#555555" fill="none" mask="url(#clip632)" />
    <path d="M 411.509174290586 374.314912692333  L 411 383  L 419.649937208712 383.931979766595  L 411.509174290586 374.314912692333  Z M 412.296536507192 376.792827287281  L 417.336056408889 382.746249761825  L 412.144888937412 382.030861557366  L 412.296536507192 376.792827287281  Z M 415.162860254471 371.047751323956  L 414.790941969494 379.739798078853  L 423.45452178451 380.535024328949  L 415.162860254471 371.047751323956  Z M 415.989266180431 373.512919319355  L 421.122199508551 379.38599308435  L 415.920379231993 378.752695515753  L 415.989266180431 373.512919319355  Z " fill-rule="nonzero" fill="#555555" stroke="none" mask="url(#clip632)" />
  </g>
</svg>