<?xml version="1.0" encoding="utf-8"?>
<svg version="1.1" xmlns:xlink="http://www.w3.org/1999/xlink" width="182px" height="6px" viewBox="144 430  182 6" xmlns="http://www.w3.org/2000/svg">
  <defs>
    <mask fill="white" id="clip635">
      <path d="M 215.5 422  L 254.5 422  L 254.5 444  L 215.5 444  Z M 156.22896300842 374  L 320 374  L 320 487.192187045561  L 156.22896300842 487.192187045561  Z " fill-rule="evenodd" />
    </mask>
  </defs>
  <g transform="matrix(-0.83541708224394 -0.549616501476279 0.549616501476277 -0.835417082243944 193.339069188098 923.895474458553 )">
    <path d="M 159 483  L 301.810412095317 389.045781516239  " stroke-width="1" stroke="#555555" fill="none" mask="url(#clip635)" />
    <path d="M 309.450081465837 391.560826626994  L 311 383  L 302.524913547236 381.034571390721  L 309.450081465837 391.560826626994  Z M 308.966418944538 389.006209128133  L 304.679410233023 382.48995588663  L 309.746874376634 383.824424752214  L 308.966418944538 389.006209128133  Z M 305.272996054617 394.308909134376  L 306.82291458878 385.748082507381  L 298.347828136016 383.782653898102  L 305.272996054617 394.308909134376  Z M 304.789333533318 391.754291635514  L 300.502324821803 385.238038394011  L 305.569788965414 386.572507259596  L 304.789333533318 391.754291635514  Z " fill-rule="nonzero" fill="#555555" stroke="none" mask="url(#clip635)" />
  </g>
</svg>