<?xml version="1.0" encoding="utf-8"?>
<svg version="1.1" xmlns:xlink="http://www.w3.org/1999/xlink" width="30px" height="30px" xmlns="http://www.w3.org/2000/svg">
  <defs>
    <filter x="1416px" y="140px" width="30px" height="30px" filterUnits="userSpaceOnUse" id="filter557">
      <feOffset dx="1" dy="1" in="SourceAlpha" result="shadowOffsetInner" />
      <feGaussianBlur stdDeviation="2.5" in="shadowOffsetInner" result="shadowGaussian" />
      <feComposite in2="shadowGaussian" operator="atop" in="SourceAlpha" result="shadowComposite" />
      <feColorMatrix type="matrix" values="0 0 0 0 0  0 0 0 0 0  0 0 0 0 0  0 0 0 0.698039215686274 0  " in="shadowComposite" />
    </filter>
    <g id="widget558">
      <path d="M 1430 144  C 1435.6 144  1440 148.4  1440 154  C 1440 159.6  1435.6 164  1430 164  C 1424.4 164  1420 159.6  1420 154  C 1420 148.4  1424.4 144  1430 144  Z " fill-rule="nonzero" fill="#009dd9" stroke="none" />
      <path d="M 1430 144.5  C 1435.32 144.5  1439.5 148.68  1439.5 154  C 1439.5 159.32  1435.32 163.5  1430 163.5  C 1424.68 163.5  1420.5 159.32  1420.5 154  C 1420.5 148.68  1424.68 144.5  1430 144.5  Z " stroke-width="1" stroke="#ffffff" fill="none" />
    </g>
  </defs>
  <g transform="matrix(1 0 0 1 -1416 -140 )">
    <use xlink:href="#widget558" filter="url(#filter557)" />
    <use xlink:href="#widget558" />
  </g>
</svg>