<?xml version="1.0" encoding="utf-8"?>
<svg version="1.1" xmlns:xlink="http://www.w3.org/1999/xlink" width="30px" height="30px" xmlns="http://www.w3.org/2000/svg">
  <defs>
    <filter x="1417px" y="727px" width="30px" height="30px" filterUnits="userSpaceOnUse" id="filter139">
      <feOffset dx="1" dy="1" in="SourceAlpha" result="shadowOffsetInner" />
      <feGaussianBlur stdDeviation="2.5" in="shadowOffsetInner" result="shadowGaussian" />
      <feComposite in2="shadowGaussian" operator="atop" in="SourceAlpha" result="shadowComposite" />
      <feColorMatrix type="matrix" values="0 0 0 0 0  0 0 0 0 0  0 0 0 0 0  0 0 0 0.698039215686274 0  " in="shadowComposite" />
    </filter>
    <g id="widget140">
      <path d="M 1431 731  C 1436.6 731  1441 735.4  1441 741  C 1441 746.6  1436.6 751  1431 751  C 1425.4 751  1421 746.6  1421 741  C 1421 735.4  1425.4 731  1431 731  Z " fill-rule="nonzero" fill="#8400ff" stroke="none" />
      <path d="M 1431 731.5  C 1436.32 731.5  1440.5 735.68  1440.5 741  C 1440.5 746.32  1436.32 750.5  1431 750.5  C 1425.68 750.5  1421.5 746.32  1421.5 741  C 1421.5 735.68  1425.68 731.5  1431 731.5  Z " stroke-width="1" stroke="#ffffff" fill="none" />
    </g>
  </defs>
  <g transform="matrix(1 0 0 1 -1417 -727 )">
    <use xlink:href="#widget140" filter="url(#filter139)" />
    <use xlink:href="#widget140" />
  </g>
</svg>