<?xml version="1.0" encoding="utf-8"?>
<svg version="1.1" xmlns:xlink="http://www.w3.org/1999/xlink" width="40px" height="50px" xmlns="http://www.w3.org/2000/svg">
  <defs>
    <filter x="136px" y="-4px" width="40px" height="50px" filterUnits="userSpaceOnUse" id="filter561">
      <feOffset dx="1" dy="1" in="SourceAlpha" result="shadowOffsetInner" />
      <feGaussianBlur stdDeviation="2.5" in="shadowOffsetInner" result="shadowGaussian" />
      <feComposite in2="shadowGaussian" operator="atop" in="SourceAlpha" result="shadowComposite" />
      <feColorMatrix type="matrix" values="0 0 0 0 0  0 0 0 0 0  0 0 0 0 0  0 0 0 0.698039215686274 0  " in="shadowComposite" />
    </filter>
    <g id="widget562">
      <path d="M 155 39.0369284683536  C 149.2 29.4073405959099  140.5 23.6295878724437  140.5 14  C 140.5 8.98571428571429  143.4 0.499999999999998  155 0.499999999999998  C 166.6 0.499999999999998  169.5 8.98571428571429  169.5 14  C 169.5 23.6295878724437  160.8 29.4073405959099  155 39.0369284683536  Z " fill-rule="nonzero" fill="#009dd9" stroke="none" />
      <path d="M 155 40  C 149 30  140 24  140 14  C 140 8.8  143 0  155 0  C 167 0  170 8.8  170 14  C 170 24  161 30  155 40  Z M 155 38.0738569367072  C 160.6 28.8146811918198  169 23.2591757448874  169 14  C 169 9.17142857142857  166.2 1  155 1  C 143.8 1  141 9.17142857142857  141 14  C 141 23.2591757448874  149.4 28.8146811918198  155 38.0738569367072  Z " fill-rule="nonzero" fill="#ffffff" stroke="none" />
    </g>
  </defs>
  <g transform="matrix(1 0 0 1 -136 4 )">
    <use xlink:href="#widget562" filter="url(#filter561)" />
    <use xlink:href="#widget562" />
  </g>
</svg>